<mxfile host="app.diagrams.net" modified="2023-05-09T14:28:02.043Z" agent="Mozilla/5.0 (X11; Linux x86_64) AppleWebKit/537.36 (KHTML, like Gecko) Chrome/113.0.0.0 Safari/537.36" version="21.2.9" etag="zkNdZU3HcG8KQImrG7uv" type="github">
  <diagram name="第 1 页" id="EXL9ymt4NI-PsFNv_-Pk">
    <mxGraphModel>
      <root>
        <mxCell id="0" />
        <mxCell id="1" parent="0" />
      </root>
    </mxGraphModel>
  </diagram>
</mxfile>
